<?xml version="1.0" encoding="UTF-8"?>
<svg width="24px" height="19px" viewBox="0 0 24 19" version="1.1" xmlns="http://www.w3.org/2000/svg" xmlns:xlink="http://www.w3.org/1999/xlink">
    <!-- Generator: Sketch 59.1 (86144) - https://sketch.com -->
    <title>list-black</title>
    <desc>Created with Sketch.</desc>
    <g id="Page-1" stroke="none" stroke-width="1" fill="none" fill-rule="evenodd">
        <g id="list-black" fill="#000000" fill-rule="nonzero">
            <path d="M24.0001,15.8532 L24.0001,17.6532 C24.0001,17.897 23.9011,18.1079 23.7032,18.286 C23.5053,18.4642 23.2709,18.5532 23.0001,18.5532 L1.00005,18.5532 C0.72922,18.5532 0.494847,18.4642 0.296933,18.286 C0.0990182,18.1079 6.10352e-05,17.897 6.10352e-05,17.6532 L6.10352e-05,15.8532 C6.10352e-05,15.6095 0.0990182,15.3985 0.296933,15.2204 C0.494847,15.0423 0.72922,14.9532 1.00005,14.9532 L23.0001,14.9532 C23.2709,14.9532 23.5053,15.0423 23.7032,15.2204 C23.9011,15.3985 24.0001,15.6095 24.0001,15.8532 L24.0001,15.8532 Z M24.0001,8.65323 L24.0001,10.4532 C24.0001,10.697 23.9011,10.9079 23.7032,11.086 C23.5053,11.2642 23.2709,11.3532 23.0001,11.3532 L1.00005,11.3532 C0.72922,11.3532 0.494847,11.2642 0.296933,11.086 C0.0990182,10.9079 6.10352e-05,10.697 6.10352e-05,10.4532 L6.10352e-05,8.65323 C6.10352e-05,8.40948 0.0990182,8.19855 0.296933,8.02043 C0.494847,7.8423 0.72922,7.75324 1.00005,7.75324 L23.0001,7.75324 C23.2709,7.75324 23.5053,7.8423 23.7032,8.02043 C23.9011,8.19855 24.0001,8.40948 24.0001,8.65323 L24.0001,8.65323 Z M24.0001,1.45321 L24.0001,3.25322 C24.0001,3.49697 23.9011,3.7079 23.7032,3.88602 C23.5053,4.06415 23.2709,4.15321 23.0001,4.15321 L1.00005,4.15321 C0.72922,4.15321 0.494847,4.06415 0.296933,3.88602 C0.0990182,3.7079 6.10352e-05,3.49697 6.10352e-05,3.25322 L6.10352e-05,1.45321 C6.10352e-05,1.20946 0.0990182,0.99853 0.296933,0.820407 C0.494847,0.642284 0.72922,0.553223 1.00005,0.553223 L23.0001,0.553223 C23.2709,0.553223 23.5053,0.642284 23.7032,0.820407 C23.9011,0.99853 24.0001,1.20946 24.0001,1.45321 L24.0001,1.45321 Z" id="Shape"></path>
        </g>
    </g>
</svg>